<!DOCTYPE svg PUBLIC "-//W3C//DTD SVG 1.1//EN" "http://www.w3.org/Graphics/SVG/1.1/DTD/svg11.dtd">
<!-- Uploaded to: SVG Repo, www.svgrepo.com, Transformed by: SVG Repo Mixer Tools -->
<svg height="800px" width="800px" version="1.1" id="Layer_1" xmlns="http://www.w3.org/2000/svg" xmlns:xlink="http://www.w3.org/1999/xlink" viewBox="0 0 512 512" xml:space="preserve" fill="#000000">
<g id="SVGRepo_bgCarrier" stroke-width="0"/>
<g id="SVGRepo_tracerCarrier" stroke-linecap="round" stroke-linejoin="round"/>
<g id="SVGRepo_iconCarrier"> <path style="fill:#ee5e53;" d="M3.43,468.339H508.57L256,42.671L3.43,468.339z"/> <g> <path style="fill:#573A32;" d="M243.2,140.804v204.8c0,7.074,5.726,12.8,12.8,12.8c7.074,0,12.8-5.726,12.8-12.8v-204.8 c0-7.074-5.726-12.8-12.8-12.8C248.926,128.004,243.2,133.73,243.2,140.804z"/> <path style="fill:#573A32;" d="M278.17,43.669c-4.574-7.919-13.022-12.8-22.17-12.8s-17.596,4.881-22.17,12.8L3.43,442.731 c-4.574,7.919-4.574,17.681,0,25.6s13.022,12.8,22.17,12.8h460.8c9.148,0,17.596-4.881,22.17-12.8c4.574-7.919,4.574-17.681,0-25.6 L278.17,43.669z M25.6,455.539L256,56.469l230.4,399.061H25.6V455.539z"/> <circle style="fill:#573A32;" cx="256" cy="409.604" r="25.6"/> </g> </g>
</svg>